<svg id="svg" version="1.1" xmlns="http://www.w3.org/2000/svg" xmlns:xlink="http://www.w3.org/1999/xlink" width="400" height="400" viewBox="0, 0, 400,400"><g id="svgg"><path id="path0" d="M0.000 200.000 L 0.000 400.000 200.000 400.000 L 400.000 400.000 400.000 200.000 L 400.000 0.000 200.000 0.000 L 0.000 0.000 0.000 200.000 M99.064 158.446 C 105.487 165.025,110.797 170.550,110.864 170.724 C 111.421 172.178,106.518 176.870,103.775 177.509 C 102.775 177.741,102.325 177.432,99.173 174.348 L 95.679 170.929 87.586 179.005 C 77.927 188.642,78.260 188.451,71.814 188.066 C 64.778 187.646,64.618 187.969,78.711 174.109 L 88.867 164.120 83.887 159.105 C 77.764 152.941,77.703 151.662,83.343 147.788 C 86.655 145.514,86.010 145.076,99.064 158.446 M206.359 156.445 C 206.219 160.854,206.256 160.799,203.327 161.034 C 199.144 161.370,198.047 162.569,198.047 166.808 L 198.047 169.112 201.855 169.224 L 205.664 169.336 205.664 172.656 L 205.664 175.977 201.860 176.088 L 198.057 176.200 197.954 190.151 L 197.852 204.102 194.141 204.361 C 188.457 204.760,189.063 206.448,189.063 190.208 L 189.063 176.172 186.509 176.172 L 183.955 176.172 184.067 172.559 L 184.180 168.945 186.719 168.750 L 189.258 168.555 189.384 165.039 C 189.693 156.392,193.029 153.456,202.344 153.633 L 206.445 153.711 206.359 156.445 M268.340 168.392 C 270.663 168.890,270.699 169.051,269.593 174.023 L 268.898 177.148 265.992 177.365 C 259.008 177.886,257.813 180.352,257.813 194.236 C 257.813 205.412,258.155 204.632,253.241 204.632 C 248.397 204.632,248.804 206.359,248.922 186.283 L 249.023 168.945 253.125 168.945 L 257.227 168.945 257.448 172.070 C 257.570 173.789,257.701 174.914,257.741 174.571 C 257.985 172.441,261.302 169.239,264.025 168.505 C 266.308 167.890,266.034 167.897,268.340 168.392 M336.815 169.131 C 342.948 171.442,346.875 178.244,346.875 186.555 L 346.875 189.411 334.375 189.195 C 320.407 188.953,321.455 188.716,322.414 191.902 C 324.377 198.425,332.060 200.091,336.954 195.055 C 338.794 193.162,338.949 193.131,342.731 193.923 C 346.105 194.628,346.219 194.754,345.316 196.771 C 340.148 208.312,320.038 207.796,314.639 195.984 C 307.417 180.185,321.356 163.306,336.815 169.131 M170.837 169.497 C 175.373 171.283,178.684 174.812,180.108 179.378 C 181.170 182.781,181.138 182.813,176.558 182.813 L 172.693 182.813 171.956 181.152 C 168.280 172.872,157.355 174.702,155.442 183.918 C 152.828 196.511,167.252 203.584,172.063 192.069 L 172.667 190.625 176.797 190.625 L 180.928 190.625 180.673 192.285 C 178.397 207.107,155.209 209.842,148.251 196.110 C 140.331 180.482,154.961 163.243,170.837 169.497 M233.324 169.856 C 248.427 177.291,246.166 201.104,230.017 204.695 C 215.162 207.998,203.599 194.766,208.564 180.145 C 211.909 170.297,224.007 165.270,233.324 169.856 M293.142 169.517 C 294.204 170.033,295.910 171.263,296.934 172.250 L 298.796 174.045 298.910 171.495 L 299.023 168.945 303.237 168.834 L 307.451 168.723 307.339 187.389 C 307.212 208.551,307.227 208.439,303.868 212.256 C 295.914 221.291,275.678 217.799,274.537 207.193 L 274.414 206.055 276.953 205.930 C 281.177 205.723,283.579 206.159,283.977 207.206 C 284.854 209.513,288.216 210.591,292.104 209.810 C 296.725 208.882,298.511 206.610,298.743 201.367 L 298.881 198.242 297.976 199.266 C 290.578 207.633,275.614 203.885,272.169 192.802 C 269.077 182.856,273.366 172.203,281.707 169.115 C 284.719 167.999,290.431 168.201,293.142 169.517 M326.758 175.649 C 324.270 176.960,322.296 179.728,322.274 181.934 L 322.266 182.813 330.078 182.813 C 338.910 182.813,338.741 182.886,337.132 179.733 C 335.092 175.734,330.228 173.819,326.758 175.649 M221.839 176.682 C 216.011 179.733,214.884 190.489,219.884 195.338 C 225.032 200.331,231.887 197.778,233.844 190.139 C 236.165 181.082,228.929 172.971,221.839 176.682 M286.328 176.403 C 276.842 180.505,279.715 196.518,289.929 196.476 C 295.165 196.454,298.897 192.239,298.897 186.346 C 298.897 178.977,292.351 173.798,286.328 176.403 M126.510 192.537 C 126.909 192.790,127.005 193.638,126.891 195.897 C 126.700 199.681,126.497 199.866,118.919 203.163 C 112.053 206.150,109.568 207.815,107.933 210.521 C 104.674 215.915,106.413 221.445,112.482 224.990 C 113.946 225.844,115.268 226.856,115.419 227.237 C 115.928 228.515,116.103 233.765,115.674 234.863 L 115.254 235.938 108.417 235.938 C 100.667 235.938,101.221 236.170,99.795 232.315 C 96.061 222.218,82.827 223.034,79.103 233.591 C 78.271 235.949,78.351 235.925,71.219 235.932 C 63.071 235.939,63.307 236.146,63.929 229.565 L 64.180 226.904 66.780 225.594 C 72.734 222.596,74.509 217.508,71.539 211.953 C 70.216 209.479,68.273 208.202,60.205 204.502 C 52.337 200.895,51.350 200.292,50.816 198.759 C 50.219 197.047,50.262 192.695,50.879 192.446 C 51.743 192.098,125.957 192.187,126.510 192.537 M169.915 223.535 C 169.910 223.804,168.709 227.715,167.244 232.227 L 164.581 240.430 163.345 240.552 C 161.754 240.710,161.680 241.201,164.719 231.435 L 167.329 223.047 168.625 223.047 C 169.406 223.047,169.919 223.241,169.915 223.535 M157.720 225.257 C 158.799 226.055,160.547 228.348,160.547 228.964 C 160.547 229.877,157.580 229.260,156.509 228.125 C 153.046 224.457,148.113 229.983,150.584 234.761 C 151.930 237.365,154.789 237.920,156.641 235.938 C 158.846 233.577,161.381 234.461,159.668 236.993 C 155.717 242.835,146.875 239.406,146.875 232.031 C 146.875 225.893,153.225 221.927,157.720 225.257 M182.517 225.483 C 183.256 226.046,184.144 227.091,184.491 227.805 L 185.122 229.102 183.627 229.219 C 182.395 229.316,181.921 229.127,180.939 228.145 C 178.837 226.042,175.486 227.027,174.749 229.965 C 173.486 234.999,177.740 239.117,180.919 235.938 C 182.057 234.800,185.156 234.186,185.156 235.098 C 185.156 239.147,177.470 241.255,173.957 238.170 C 166.987 232.051,175.189 219.894,182.517 225.483 M239.063 230.386 C 239.278 236.984,239.323 237.093,241.834 237.103 C 244.244 237.114,244.494 236.480,244.618 230.060 L 244.727 224.414 246.094 224.414 L 247.461 224.414 247.563 230.078 C 247.706 237.974,246.565 239.844,241.602 239.842 C 237.026 239.840,235.938 238.017,235.938 230.358 C 235.938 224.059,235.856 224.355,237.590 224.389 L 238.867 224.414 239.063 230.386 M313.590 224.958 C 319.218 227.831,318.961 236.828,313.182 239.243 C 308.037 241.393,303.109 237.814,303.134 231.946 C 303.158 226.044,308.596 222.410,313.590 224.958 M330.874 225.098 C 335.931 227.648,335.846 236.554,330.742 239.025 C 325.330 241.645,320.508 238.350,320.508 232.031 C 320.508 225.653,325.437 222.356,330.874 225.098 M231.280 225.751 C 232.658 227.129,232.773 228.745,231.600 230.236 L 230.778 231.281 231.751 232.182 C 233.139 233.468,233.429 235.218,232.551 237.010 C 231.544 239.066,230.519 239.441,225.879 239.447 L 221.875 239.453 221.875 232.031 L 221.875 224.609 226.007 224.609 C 230.052 224.609,230.162 224.633,231.280 225.751 M253.817 232.129 L 253.923 239.453 252.352 239.453 L 250.781 239.453 250.781 232.292 C 250.781 224.521,250.782 224.518,252.525 224.689 L 253.711 224.805 253.817 232.129 M260.459 230.762 L 260.567 236.719 264.073 236.719 L 267.578 236.719 267.578 238.098 L 267.578 239.476 262.598 239.367 L 257.617 239.258 257.510 232.436 C 257.385 224.512,257.384 224.519,259.079 224.682 L 260.352 224.805 260.459 230.762 M277.988 225.216 C 283.539 226.095,284.595 235.648,279.463 238.568 C 278.168 239.304,277.337 239.441,274.121 239.447 L 270.313 239.453 270.313 232.126 L 270.313 224.799 273.535 224.910 C 275.308 224.972,277.311 225.109,277.988 225.216 M302.148 225.977 C 302.148 227.114,302.085 227.154,299.987 227.344 L 297.826 227.539 297.839 233.398 L 297.852 239.258 296.289 239.258 L 294.727 239.258 294.727 233.300 L 294.727 227.343 292.480 227.343 C 290.274 227.344,290.234 227.324,290.234 226.237 C 290.234 224.598,290.304 224.580,296.462 224.697 L 302.148 224.805 302.148 225.977 M340.234 230.649 L 340.234 236.689 343.848 236.802 L 347.461 236.914 347.461 238.086 L 347.461 239.258 342.480 239.367 L 337.500 239.476 337.500 232.043 L 337.500 224.609 338.867 224.609 L 340.234 224.609 340.234 230.649 M194.531 228.711 L 194.531 230.859 196.680 230.859 L 198.828 230.859 198.828 232.227 L 198.828 233.594 196.680 233.594 L 194.531 233.594 194.531 235.742 L 194.531 237.891 193.164 237.891 L 191.797 237.891 191.797 235.742 L 191.797 233.594 189.648 233.594 L 187.500 233.594 187.500 232.227 L 187.500 230.859 189.648 230.859 L 191.797 230.859 191.797 228.711 L 191.797 226.563 193.164 226.563 L 194.531 226.563 194.531 228.711 M208.594 228.711 L 208.594 230.859 210.742 230.859 L 212.891 230.859 212.891 232.227 L 212.891 233.594 210.742 233.594 L 208.594 233.594 208.594 235.767 L 208.594 237.940 207.324 237.818 C 206.078 237.698,206.055 237.660,206.055 235.742 L 206.055 233.789 203.906 233.594 C 200.560 233.290,200.567 231.118,203.915 230.940 L 206.072 230.826 205.925 229.278 C 205.719 227.122,206.025 226.563,207.410 226.563 C 208.585 226.563,208.594 226.579,208.594 228.711 M224.609 228.711 L 224.609 230.469 226.339 230.469 C 228.172 230.469,229.297 229.745,229.297 228.566 C 229.297 227.438,228.452 226.953,226.484 226.953 L 224.609 226.953 224.609 228.711 M308.249 227.590 C 306.402 228.883,305.682 232.534,306.834 234.761 C 308.716 238.402,313.502 237.563,314.273 233.457 C 315.123 228.923,311.452 225.347,308.249 227.590 M324.909 228.093 C 321.940 230.746,323.738 237.126,327.448 237.101 C 329.828 237.084,331.250 235.206,331.250 232.075 C 331.250 227.552,327.882 225.436,324.909 228.093 M273.047 232.227 L 273.047 237.109 274.913 237.109 C 277.129 237.109,278.386 236.344,279.143 234.532 C 280.728 230.737,278.732 227.344,274.913 227.344 L 273.047 227.344 273.047 232.227 M224.609 234.961 L 224.609 237.109 226.680 237.109 C 229.079 237.109,229.688 236.662,229.688 234.897 C 229.688 233.334,228.862 232.813,226.393 232.813 L 224.609 232.813 224.609 234.961 " stroke="none" fill="#1b1b1b" fill-rule="evenodd"></path><path id="path1" d="M84.570 147.246 C 83.249 147.790,80.285 150.625,79.485 152.111 L 78.726 153.520 83.992 158.824 L 89.258 164.128 78.815 174.349 C 71.828 181.188,68.182 185.039,67.795 185.986 L 67.218 187.403 68.667 187.642 C 70.994 188.027,76.805 187.927,78.002 187.481 C 78.607 187.256,82.836 183.348,87.400 178.796 L 95.698 170.519 99.126 173.932 C 103.439 178.224,105.062 178.142,109.097 173.428 C 111.214 170.955,111.512 171.391,98.981 158.642 C 86.883 146.334,86.850 146.308,84.570 147.246 M196.680 154.453 C 191.421 156.116,189.474 159.308,189.459 166.291 L 189.453 169.105 186.816 169.220 L 184.180 169.336 184.180 172.656 L 184.180 175.977 186.719 175.977 L 189.258 175.977 189.360 190.150 L 189.463 204.324 193.462 204.213 L 197.461 204.102 197.564 190.254 C 197.673 175.559,197.655 175.687,199.573 176.044 C 200.130 176.147,201.691 176.116,203.043 175.974 L 205.499 175.716 205.386 172.526 L 205.273 169.336 201.563 169.336 L 197.852 169.336 197.751 166.797 C 197.587 162.652,198.948 161.092,203.135 160.630 L 205.655 160.352 206.151 157.617 C 206.424 156.113,206.563 154.663,206.461 154.395 C 206.210 153.738,198.801 153.782,196.680 154.453 M263.942 168.917 C 261.659 169.531,259.599 171.392,258.408 173.918 C 257.292 176.283,257.031 175.965,257.031 172.242 C 257.031 168.723,257.061 168.750,253.125 168.750 C 251.656 168.750,250.176 168.857,249.837 168.987 C 249.286 169.198,249.219 171.131,249.219 186.774 L 249.219 204.324 253.223 204.213 L 257.227 204.102 257.422 193.750 C 257.605 184.097,257.675 183.293,258.461 181.836 C 260.207 178.598,262.926 176.953,266.533 176.953 L 268.637 176.953 269.309 173.730 C 269.679 171.958,270.061 170.222,270.158 169.873 C 270.498 168.648,266.966 168.104,263.942 168.917 M325.363 168.869 C 313.605 172.200,308.922 190.402,317.452 199.616 C 324.773 207.524,340.231 206.137,344.779 197.163 C 345.964 194.823,345.928 194.781,342.021 194.000 L 338.924 193.382 337.085 195.300 C 331.644 200.975,322.908 198.307,322.006 190.696 L 321.789 188.867 334.368 188.998 L 346.948 189.129 346.687 186.069 C 345.565 172.927,336.591 165.688,325.363 168.869 M158.984 169.288 C 149.096 172.155,143.971 183.233,147.622 193.846 C 151.476 205.046,166.999 208.624,175.949 200.374 C 179.178 197.398,181.572 190.779,179.395 190.848 C 178.911 190.864,177.216 190.908,175.628 190.946 C 172.965 191.010,172.723 191.086,172.514 191.918 C 170.423 200.251,158.488 199.935,155.689 191.473 C 151.341 178.329,166.437 168.742,172.195 180.991 L 172.998 182.700 176.636 182.659 L 180.273 182.617 180.178 181.055 C 179.682 172.883,168.327 166.580,158.984 169.288 M220.117 169.278 C 205.127 174.222,203.168 196.135,217.100 203.021 L 220.077 204.492 225.370 204.492 C 238.858 204.492,246.492 193.180,241.975 179.889 C 239.111 171.462,228.748 166.431,220.117 169.278 M282.069 169.339 C 271.152 172.742,267.608 190.301,276.119 198.813 C 282.084 204.777,291.227 205.091,297.120 199.534 L 299.318 197.461 299.151 201.004 C 298.892 206.523,297.390 208.636,292.769 209.979 C 289.075 211.053,285.389 210.134,284.053 207.806 C 283.249 206.406,282.707 206.262,278.215 206.255 L 274.594 206.250 274.853 207.324 C 277.739 219.331,299.335 220.861,305.373 209.486 C 307.263 205.926,307.422 204.097,307.422 185.866 L 307.422 169.141 306.348 169.107 C 305.757 169.088,304.658 168.999,303.906 168.908 C 303.154 168.818,301.792 168.844,300.879 168.966 L 299.219 169.188 299.219 171.899 C 299.219 175.144,299.400 175.100,296.733 172.496 C 293.137 168.986,287.260 167.720,282.069 169.339 M333.121 175.356 C 335.816 176.746,338.281 180.115,338.281 182.409 C 338.281 183.182,338.064 183.203,330.035 183.203 L 321.788 183.203 322.052 181.794 C 323.109 176.163,328.548 172.999,333.121 175.356 M229.851 176.846 C 237.920 182.518,235.223 197.387,226.019 197.974 C 220.013 198.356,216.058 193.353,216.488 185.917 C 216.972 177.549,224.033 172.757,229.851 176.846 M292.254 175.793 C 297.396 177.221,300.588 184.513,298.612 190.315 C 295.748 198.720,284.782 199.098,281.238 190.915 C 277.595 182.504,284.128 173.536,292.254 175.793 M50.781 195.330 C 50.781 199.476,51.101 199.862,56.708 202.504 C 69.254 208.415,70.528 209.256,72.120 212.674 C 74.650 218.108,72.539 223.076,66.376 226.187 L 64.035 227.369 64.147 231.343 C 64.281 236.131,63.807 235.842,71.608 235.899 C 77.965 235.944,78.264 235.827,79.177 232.933 C 82.475 222.469,96.181 222.308,100.147 232.686 C 101.421 236.021,101.181 235.925,108.275 235.932 C 115.759 235.940,115.625 236.018,115.625 231.625 C 115.625 227.370,115.388 226.852,112.863 225.572 C 105.780 221.983,104.057 214.254,109.108 208.728 C 111.064 206.588,112.338 205.867,122.379 201.220 C 126.345 199.384,127.080 198.333,126.875 194.791 L 126.758 192.773 88.770 192.674 L 50.781 192.574 50.781 195.330 M167.378 223.926 C 167.282 224.194,166.139 227.754,164.838 231.836 C 163.538 235.918,162.397 239.478,162.304 239.746 C 162.193 240.064,162.531 240.234,163.269 240.234 C 164.394 240.234,164.423 240.174,166.407 233.887 C 167.508 230.396,168.733 226.616,169.128 225.488 L 169.847 223.438 168.700 223.438 C 168.070 223.438,167.475 223.657,167.378 223.926 M151.172 225.048 C 145.613 227.265,145.698 236.923,151.295 239.038 C 154.889 240.395,160.156 238.110,160.156 235.194 C 160.156 234.371,157.497 234.695,157.225 235.551 C 156.138 238.975,151.028 237.555,149.952 233.530 C 148.599 228.465,153.488 224.470,156.675 228.036 C 157.743 229.231,160.156 229.875,160.156 228.964 C 160.156 226.129,154.569 223.694,151.172 225.048 M175.195 225.389 C 168.750 228.601,171.156 239.453,178.313 239.453 C 181.283 239.453,184.766 237.223,184.766 235.322 C 184.766 234.213,182.493 234.674,181.284 236.026 C 178.725 238.890,174.660 236.951,174.307 232.698 C 173.885 227.607,178.026 224.691,181.080 227.930 C 183.334 230.320,185.561 229.822,183.879 227.304 C 182.131 224.688,178.298 223.842,175.195 225.389 M236.198 224.870 C 236.055 225.013,235.938 227.392,235.938 230.156 C 235.938 237.546,236.821 239.103,241.172 239.380 C 246.327 239.708,247.266 238.309,247.266 230.293 L 247.266 224.609 246.094 224.609 L 244.922 224.609 244.922 230.096 C 244.922 236.414,244.440 237.500,241.635 237.500 C 239.028 237.500,238.672 236.623,238.672 230.200 L 238.672 224.609 237.565 224.609 C 236.956 224.609,236.341 224.727,236.198 224.870 M307.227 225.140 C 302.581 227.288,302.072 235.248,306.376 238.440 C 309.230 240.557,314.457 239.322,316.302 236.096 C 319.911 229.785,313.616 222.185,307.227 225.140 M324.395 225.159 C 320.251 226.964,319.028 233.423,322.132 237.111 C 325.011 240.532,330.928 240.205,333.219 236.498 C 337.167 230.110,331.056 222.257,324.395 225.159 M221.875 232.031 L 221.875 239.063 226.119 239.063 C 229.802 239.063,230.498 238.957,231.378 238.264 C 233.303 236.750,233.109 233.131,231.043 232.025 L 230.107 231.524 231.069 230.380 C 233.768 227.173,231.718 225.000,225.994 225.000 L 221.875 225.000 221.875 232.031 M251.172 232.129 L 251.172 239.258 252.344 239.258 L 253.516 239.258 253.516 232.129 L 253.516 225.000 252.344 225.000 L 251.172 225.000 251.172 232.129 M257.813 232.031 L 257.813 239.063 262.500 239.063 L 267.188 239.063 267.188 237.866 L 267.188 236.670 263.770 236.753 L 260.352 236.836 260.244 230.918 L 260.136 225.000 258.974 225.000 L 257.813 225.000 257.813 232.031 M270.313 231.979 L 270.313 239.063 274.127 239.063 C 280.380 239.063,282.560 237.143,282.336 231.834 C 282.130 226.930,280.241 225.378,274.121 225.081 L 270.313 224.896 270.313 231.979 M290.625 225.977 C 290.625 226.900,290.742 226.953,292.773 226.953 L 294.922 226.953 294.922 233.008 L 294.922 239.063 296.289 239.063 L 297.656 239.063 297.656 233.008 L 297.656 226.953 299.805 226.953 C 301.836 226.953,301.953 226.900,301.953 225.977 L 301.953 225.000 296.289 225.000 L 290.625 225.000 290.625 225.977 M337.891 232.031 L 337.891 239.063 342.578 239.063 L 347.266 239.063 347.266 237.866 L 347.266 236.670 343.848 236.753 L 340.430 236.836 340.322 230.918 L 340.214 225.000 339.052 225.000 L 337.891 225.000 337.891 232.031 M228.828 227.031 C 229.755 227.958,229.402 230.058,228.245 230.497 C 225.317 231.610,223.320 229.860,224.376 227.107 C 224.639 226.421,228.157 226.361,228.828 227.031 M312.122 227.155 C 315.296 228.796,315.296 235.266,312.122 236.907 C 309.012 238.516,306.248 236.183,306.251 231.953 C 306.254 227.796,309.008 225.545,312.122 227.155 M329.047 227.100 C 332.392 228.498,332.535 234.939,329.263 236.872 C 325.002 239.389,320.993 232.510,324.283 228.327 C 325.642 226.600,327.007 226.248,329.047 227.100 M192.188 229.102 L 192.188 231.250 190.039 231.250 C 188.008 231.250,187.891 231.303,187.891 232.227 C 187.891 233.150,188.008 233.203,190.039 233.203 L 192.188 233.203 192.188 235.352 C 192.188 237.435,192.220 237.500,193.262 237.501 C 194.320 237.501,194.334 237.469,194.202 235.352 L 194.068 233.203 196.448 233.203 C 198.726 233.203,198.828 233.161,198.828 232.227 C 198.828 231.293,198.724 231.250,196.484 231.250 L 194.141 231.250 194.141 229.102 C 194.141 227.070,194.087 226.953,193.164 226.953 C 192.241 226.953,192.188 227.070,192.188 229.102 M206.250 229.102 L 206.250 231.250 204.102 231.250 C 202.070 231.250,201.953 231.303,201.953 232.227 C 201.953 233.150,202.070 233.203,204.102 233.203 L 206.250 233.203 206.250 235.352 C 206.250 237.478,206.262 237.500,207.422 237.500 C 208.582 237.500,208.594 237.478,208.594 235.352 L 208.594 233.203 210.742 233.203 C 212.773 233.203,212.891 233.150,212.891 232.227 C 212.891 231.303,212.773 231.250,210.742 231.250 L 208.594 231.250 208.594 229.102 C 208.594 226.975,208.582 226.953,207.422 226.953 C 206.262 226.953,206.250 226.975,206.250 229.102 M278.590 228.539 C 281.533 232.063,279.129 237.500,274.629 237.500 L 273.047 237.500 273.047 232.178 L 273.047 226.856 275.270 227.041 C 277.209 227.201,277.634 227.394,278.590 228.539 M229.297 233.203 C 231.333 235.239,229.766 237.610,226.508 237.424 L 224.414 237.305 224.293 235.401 C 224.118 232.645,224.287 232.422,226.550 232.422 C 227.995 232.422,228.723 232.629,229.297 233.203 " stroke="none" fill="#ebebeb" fill-rule="evenodd"></path><path id="path2" d="M205.559 171.875 C 205.559 172.627,205.640 172.935,205.738 172.559 C 205.836 172.183,205.836 171.567,205.738 171.191 C 205.640 170.815,205.559 171.123,205.559 171.875 M265.532 177.229 C 266.018 177.323,266.721 177.319,267.094 177.222 C 267.468 177.124,267.070 177.047,266.211 177.052 C 265.352 177.056,265.046 177.136,265.532 177.229 M326.486 183.104 C 328.699 183.174,332.215 183.174,334.298 183.103 C 336.381 183.033,334.570 182.976,330.273 182.977 C 325.977 182.977,324.272 183.034,326.486 183.104 M257.539 195.703 C 257.539 196.885,257.612 197.368,257.702 196.777 C 257.791 196.187,257.791 195.220,257.702 194.629 C 257.612 194.038,257.539 194.521,257.539 195.703 M197.773 201.953 C 197.773 203.135,197.847 203.618,197.936 203.027 C 198.026 202.437,198.026 201.470,197.936 200.879 C 197.847 200.288,197.773 200.771,197.773 201.953 M286.626 203.792 C 287.112 203.885,287.815 203.882,288.188 203.784 C 288.562 203.686,288.164 203.610,287.305 203.614 C 286.445 203.618,286.140 203.698,286.626 203.792 M288.965 217.463 C 289.448 217.556,290.239 217.556,290.723 217.463 C 291.206 217.370,290.811 217.294,289.844 217.294 C 288.877 217.294,288.481 217.370,288.965 217.463 M191.914 228.906 C 191.914 230.088,191.987 230.571,192.077 229.980 C 192.166 229.390,192.166 228.423,192.077 227.832 C 191.987 227.241,191.914 227.725,191.914 228.906 M337.643 234.961 C 337.644 237.109,337.709 237.938,337.788 236.803 C 337.868 235.668,337.867 233.910,337.787 232.897 C 337.706 231.884,337.642 232.813,337.643 234.961 M191.909 235.742 C 191.912 236.816,191.987 237.209,192.077 236.616 C 192.167 236.022,192.165 235.143,192.072 234.663 C 191.979 234.182,191.906 234.668,191.909 235.742 M260.247 235.547 C 260.247 236.299,260.327 236.606,260.426 236.230 C 260.524 235.854,260.524 235.239,260.426 234.863 C 260.327 234.487,260.247 234.795,260.247 235.547 M273.926 237.379 C 274.302 237.477,274.917 237.477,275.293 237.379 C 275.669 237.280,275.361 237.200,274.609 237.200 C 273.857 237.200,273.550 237.280,273.926 237.379 " stroke="none" fill="#6e6e6f" fill-rule="evenodd"></path><path id="path3" d="M201.074 153.798 C 201.772 153.885,202.915 153.885,203.613 153.798 C 204.312 153.712,203.740 153.641,202.344 153.641 C 200.947 153.641,200.376 153.712,201.074 153.798 M85.547 160.742 C 87.364 162.568,88.938 164.063,89.045 164.063 C 89.153 164.063,87.754 162.568,85.938 160.742 C 84.121 158.916,82.547 157.422,82.439 157.422 C 82.332 157.422,83.730 158.916,85.547 160.742 M203.711 160.547 L 201.758 160.815 203.590 160.876 C 204.598 160.910,205.531 160.762,205.664 160.547 C 205.797 160.332,205.851 160.184,205.785 160.218 C 205.718 160.251,204.785 160.400,203.711 160.547 M81.440 171.582 L 76.367 176.758 81.543 171.685 C 86.351 166.973,86.896 166.406,86.615 166.406 C 86.559 166.406,84.230 168.735,81.440 171.582 M108.398 168.359 C 109.457 169.434,110.410 170.313,110.518 170.313 C 110.625 170.313,109.847 169.434,108.789 168.359 C 107.731 167.285,106.777 166.406,106.670 166.406 C 106.563 166.406,107.340 167.285,108.398 168.359 M163.384 168.640 C 163.978 168.729,164.857 168.727,165.337 168.634 C 165.818 168.542,165.332 168.468,164.258 168.471 C 163.184 168.474,162.791 168.550,163.384 168.640 M224.512 168.642 C 225.210 168.729,226.353 168.729,227.051 168.642 C 227.749 168.555,227.178 168.484,225.781 168.484 C 224.385 168.484,223.813 168.555,224.512 168.642 M285.840 168.642 C 286.538 168.729,287.681 168.729,288.379 168.642 C 289.077 168.555,288.506 168.484,287.109 168.484 C 285.713 168.484,285.142 168.555,285.840 168.642 M186.822 169.030 C 187.416 169.120,188.294 169.118,188.775 169.025 C 189.255 168.932,188.770 168.859,187.695 168.862 C 186.621 168.865,186.228 168.941,186.822 169.030 M90.820 175.391 C 88.249 177.969,86.233 180.078,86.340 180.078 C 86.448 180.078,88.640 177.969,91.211 175.391 C 93.782 172.813,95.798 170.703,95.691 170.703 C 95.583 170.703,93.392 172.813,90.820 175.391 M317.948 173.340 L 316.602 174.805 318.066 173.459 C 319.430 172.206,319.711 171.875,319.413 171.875 C 319.347 171.875,318.688 172.534,317.948 173.340 M151.343 173.535 L 150.195 174.805 151.465 173.657 C 152.163 173.026,152.734 172.455,152.734 172.388 C 152.734 172.086,152.412 172.352,151.343 173.535 M212.479 173.730 L 211.133 175.195 212.598 173.849 C 213.961 172.596,214.242 172.266,213.944 172.266 C 213.879 172.266,213.219 172.925,212.479 173.730 M203.613 176.051 C 203.989 176.149,204.604 176.149,204.980 176.051 C 205.356 175.952,205.049 175.872,204.297 175.872 C 203.545 175.872,203.237 175.952,203.613 176.051 M157.983 178.223 L 156.836 179.492 158.105 178.345 C 159.289 177.275,159.555 176.953,159.253 176.953 C 159.186 176.953,158.614 177.524,157.983 178.223 M346.575 185.156 C 346.575 185.908,346.655 186.216,346.754 185.840 C 346.852 185.464,346.852 184.849,346.754 184.473 C 346.655 184.097,346.575 184.404,346.575 185.156 M280.169 185.938 C 280.169 186.689,280.249 186.997,280.347 186.621 C 280.446 186.245,280.446 185.630,280.347 185.254 C 280.249 184.878,280.169 185.186,280.169 185.938 M154.794 186.719 C 154.794 187.686,154.870 188.081,154.963 187.598 C 155.056 187.114,155.056 186.323,154.963 185.840 C 154.870 185.356,154.794 185.752,154.794 186.719 M234.481 186.719 C 234.481 187.686,234.558 188.081,234.651 187.598 C 234.744 187.114,234.744 186.323,234.651 185.840 C 234.558 185.356,234.481 185.752,234.481 186.719 M312.981 187.500 C 312.981 188.252,313.062 188.560,313.160 188.184 C 313.258 187.808,313.258 187.192,313.160 186.816 C 313.062 186.440,312.981 186.748,312.981 187.500 M322.363 188.941 C 322.739 189.039,323.354 189.039,323.730 188.941 C 324.106 188.843,323.799 188.763,323.047 188.763 C 322.295 188.763,321.987 188.843,322.363 188.941 M175.300 190.908 C 176.002 190.995,177.057 190.993,177.644 190.904 C 178.231 190.815,177.656 190.744,176.367 190.746 C 175.078 190.748,174.598 190.821,175.300 190.908 M50.516 195.313 C 50.516 196.709,50.587 197.280,50.673 196.582 C 50.760 195.884,50.760 194.741,50.673 194.043 C 50.587 193.345,50.516 193.916,50.516 195.313 M329.785 198.316 C 330.161 198.414,330.776 198.414,331.152 198.316 C 331.528 198.218,331.221 198.138,330.469 198.138 C 329.717 198.138,329.409 198.218,329.785 198.316 M238.260 199.902 L 236.914 201.367 238.379 200.021 C 239.742 198.768,240.023 198.438,239.725 198.438 C 239.660 198.438,239.001 199.097,238.260 199.902 M296.854 199.902 L 295.508 201.367 296.973 200.021 C 298.336 198.768,298.617 198.438,298.319 198.438 C 298.254 198.438,297.594 199.097,296.854 199.902 M316.797 199.341 C 316.797 199.408,317.368 199.979,318.066 200.611 L 319.336 201.758 318.189 200.488 C 317.119 199.305,316.797 199.039,316.797 199.341 M342.358 200.488 L 341.211 201.758 342.480 200.611 C 343.179 199.979,343.750 199.408,343.750 199.341 C 343.750 199.039,343.428 199.305,342.358 200.488 M224.112 204.969 C 224.806 205.056,226.036 205.057,226.847 204.973 C 227.657 204.888,227.090 204.817,225.586 204.816 C 224.082 204.814,223.419 204.883,224.112 204.969 M328.809 204.970 C 329.507 205.057,330.649 205.057,331.348 204.970 C 332.046 204.883,331.475 204.813,330.078 204.813 C 328.682 204.813,328.110 204.883,328.809 204.970 M277.246 206.135 C 277.729 206.228,278.521 206.228,279.004 206.135 C 279.487 206.042,279.092 205.966,278.125 205.966 C 277.158 205.966,276.763 206.042,277.246 206.135 M288.965 210.432 C 289.448 210.525,290.239 210.525,290.723 210.432 C 291.206 210.339,290.811 210.263,289.844 210.263 C 288.877 210.263,288.481 210.339,288.965 210.432 M223.744 224.898 C 224.879 224.977,226.637 224.976,227.650 224.896 C 228.663 224.816,227.734 224.751,225.586 224.752 C 223.438 224.753,222.608 224.819,223.744 224.898 M253.678 232.031 C 253.678 236.006,253.736 237.632,253.807 235.645 C 253.878 233.657,253.878 230.405,253.807 228.418 C 253.736 226.431,253.678 228.057,253.678 232.031 M337.636 228.125 C 337.636 229.951,337.704 230.698,337.786 229.785 C 337.868 228.872,337.868 227.378,337.786 226.465 C 337.704 225.552,337.636 226.299,337.636 228.125 M247.413 230.078 C 247.413 232.549,247.477 233.560,247.554 232.324 C 247.632 231.089,247.632 229.067,247.554 227.832 C 247.477 226.597,247.413 227.607,247.413 230.078 M260.302 230.273 C 260.303 232.637,260.368 233.553,260.445 232.310 C 260.523 231.067,260.522 229.133,260.444 228.013 C 260.365 226.893,260.301 227.910,260.302 230.273 M177.832 226.832 C 178.208 226.930,178.823 226.930,179.199 226.832 C 179.575 226.734,179.268 226.653,178.516 226.653 C 177.764 226.653,177.456 226.734,177.832 226.832 M194.135 229.022 L 194.325 231.445 194.450 229.339 C 194.519 228.180,194.434 227.090,194.261 226.915 C 194.087 226.741,194.031 227.689,194.135 229.022 M290.591 227.076 C 290.766 227.251,291.680 227.335,292.623 227.264 L 294.336 227.134 292.304 226.946 C 291.186 226.842,290.416 226.901,290.591 227.076 M224.374 228.711 L 224.414 230.664 225.977 230.697 L 227.539 230.731 226.095 230.578 C 224.683 230.429,224.647 230.384,224.492 228.592 L 224.334 226.758 224.374 228.711 M298.737 227.236 C 299.440 227.323,300.494 227.321,301.081 227.232 C 301.668 227.143,301.094 227.072,299.805 227.074 C 298.516 227.076,298.035 227.149,298.737 227.236 M282.528 232.031 C 282.528 232.998,282.604 233.394,282.698 232.910 C 282.791 232.427,282.791 231.636,282.698 231.152 C 282.604 230.669,282.528 231.064,282.528 232.031 M303.224 231.836 C 303.228 232.695,303.308 233.001,303.401 232.515 C 303.495 232.029,303.491 231.326,303.393 230.952 C 303.296 230.579,303.219 230.977,303.224 231.836 M317.286 232.227 C 317.290 233.086,317.370 233.392,317.464 232.906 C 317.557 232.420,317.554 231.717,317.456 231.343 C 317.358 230.970,317.282 231.367,317.286 232.227 M224.264 234.840 C 224.239 236.063,224.351 237.145,224.512 237.244 C 224.673 237.344,224.752 236.607,224.688 235.607 C 224.505 232.755,224.314 232.409,224.264 234.840 M194.258 235.156 C 194.258 236.338,194.331 236.821,194.420 236.230 C 194.510 235.640,194.510 234.673,194.420 234.082 C 194.331 233.491,194.258 233.975,194.258 235.156 M262.500 239.063 L 257.617 239.295 262.379 239.374 C 265.221 239.421,267.239 239.296,267.383 239.063 C 267.516 238.848,267.570 238.708,267.504 238.751 C 267.437 238.795,265.186 238.935,262.500 239.063 M337.844 239.173 C 338.013 239.341,340.246 239.428,342.806 239.367 L 347.461 239.254 342.499 239.061 C 339.769 238.954,337.675 239.005,337.844 239.173 M223.730 239.350 C 224.858 239.429,226.704 239.429,227.832 239.350 C 228.960 239.272,228.037 239.207,225.781 239.207 C 223.525 239.207,222.603 239.272,223.730 239.350 M271.973 239.350 C 272.993 239.430,274.663 239.430,275.684 239.350 C 276.704 239.269,275.869 239.203,273.828 239.203 C 271.787 239.203,270.952 239.269,271.973 239.350 M295.610 239.339 C 296.096 239.432,296.799 239.429,297.173 239.331 C 297.546 239.233,297.148 239.157,296.289 239.161 C 295.430 239.165,295.124 239.245,295.610 239.339 M309.863 239.722 C 310.239 239.821,310.854 239.821,311.230 239.722 C 311.606 239.624,311.299 239.544,310.547 239.544 C 309.795 239.544,309.487 239.624,309.863 239.722 M162.598 240.504 C 162.974 240.602,163.589 240.602,163.965 240.504 C 164.341 240.405,164.033 240.325,163.281 240.325 C 162.529 240.325,162.222 240.405,162.598 240.504 " stroke="none" fill="#8b8c8c" fill-rule="evenodd"></path><path id="path4" d="M92.182 151.660 C 95.079 154.614,97.496 157.031,97.553 157.031 C 97.833 157.031,97.275 156.451,92.285 151.557 L 86.914 146.289 92.182 151.660 M197.763 167.188 C 197.763 168.154,197.839 168.550,197.932 168.066 C 198.025 167.583,198.025 166.792,197.932 166.309 C 197.839 165.825,197.763 166.221,197.763 167.188 M328.428 168.255 C 329.347 168.338,330.753 168.337,331.553 168.253 C 332.353 168.169,331.602 168.101,329.883 168.103 C 328.164 168.104,327.510 168.173,328.428 168.255 M249.007 169.238 C 248.904 169.507,248.866 177.373,248.922 186.719 L 249.024 203.711 249.219 186.230 C 249.326 176.616,249.365 168.750,249.304 168.750 C 249.244 168.750,249.110 168.970,249.007 169.238 M298.990 169.282 C 298.878 169.575,298.842 170.849,298.910 172.114 L 299.035 174.414 299.225 171.581 C 299.415 168.739,299.369 168.294,298.990 169.282 M257.163 171.875 C 257.163 173.486,257.232 174.146,257.316 173.340 C 257.400 172.534,257.400 171.216,257.316 170.410 C 257.232 169.604,257.163 170.264,257.163 171.875 M205.567 174.414 C 205.572 175.273,205.652 175.579,205.745 175.093 C 205.838 174.607,205.835 173.904,205.737 173.531 C 205.639 173.157,205.563 173.555,205.567 174.414 M189.238 189.844 C 189.238 197.256,189.291 200.288,189.355 196.582 C 189.419 192.876,189.419 186.812,189.355 183.105 C 189.291 179.399,189.238 182.432,189.238 189.844 M197.830 188.281 C 197.830 194.834,197.883 197.515,197.948 194.238 C 198.014 190.962,198.014 185.601,197.948 182.324 C 197.883 179.048,197.830 181.729,197.830 188.281 M70.299 182.324 L 68.164 184.570 70.410 182.435 C 72.497 180.452,72.835 180.078,72.545 180.078 C 72.484 180.078,71.473 181.089,70.299 182.324 M80.646 185.645 L 79.102 187.305 80.762 185.761 C 82.306 184.325,82.601 183.984,82.306 183.984 C 82.242 183.984,81.495 184.731,80.646 185.645 M271.184 185.547 C 271.184 186.299,271.265 186.606,271.363 186.230 C 271.461 185.854,271.461 185.239,271.363 184.863 C 271.265 184.487,271.184 184.795,271.184 185.547 M207.513 186.719 C 207.513 187.471,207.593 187.778,207.691 187.402 C 207.789 187.026,207.789 186.411,207.691 186.035 C 207.593 185.659,207.513 185.967,207.513 186.719 M216.497 186.719 C 216.497 187.471,216.577 187.778,216.676 187.402 C 216.774 187.026,216.774 186.411,216.676 186.035 C 216.577 185.659,216.497 185.967,216.497 186.719 M257.563 189.453 C 257.563 191.494,257.629 192.329,257.709 191.309 C 257.789 190.288,257.789 188.618,257.709 187.598 C 257.629 186.577,257.563 187.412,257.563 189.453 M146.192 188.086 C 146.197 188.945,146.277 189.251,146.370 188.765 C 146.463 188.279,146.460 187.576,146.362 187.202 C 146.264 186.829,146.188 187.227,146.192 188.086 M337.598 189.342 C 338.188 189.432,339.155 189.432,339.746 189.342 C 340.337 189.253,339.854 189.180,338.672 189.180 C 337.490 189.180,337.007 189.253,337.598 189.342 M341.895 189.342 C 342.485 189.432,343.452 189.432,344.043 189.342 C 344.634 189.253,344.150 189.180,342.969 189.180 C 341.787 189.180,341.304 189.253,341.895 189.342 M69.824 192.480 C 80.190 192.538,97.153 192.538,107.520 192.480 C 117.886 192.422,109.404 192.375,88.672 192.375 C 67.939 192.375,59.458 192.422,69.824 192.480 M257.558 200.781 C 257.558 202.607,257.626 203.354,257.708 202.441 C 257.790 201.528,257.790 200.034,257.708 199.121 C 257.626 198.208,257.558 198.955,257.558 200.781 M298.734 199.512 C 298.973 202.024,299.126 202.228,299.173 200.098 C 299.198 198.970,299.078 198.047,298.907 198.047 C 298.735 198.047,298.657 198.706,298.734 199.512 M250.293 204.573 C 250.776 204.666,251.567 204.666,252.051 204.573 C 252.534 204.479,252.139 204.403,251.172 204.403 C 250.205 204.403,249.810 204.479,250.293 204.573 M254.400 204.577 C 254.994 204.667,255.873 204.665,256.353 204.572 C 256.833 204.479,256.348 204.406,255.273 204.409 C 254.199 204.412,253.806 204.487,254.400 204.577 M238.172 224.498 C 238.494 224.727,238.689 226.532,238.776 230.094 L 238.904 235.352 238.885 229.915 C 238.870 225.424,238.765 224.450,238.281 224.319 C 237.860 224.204,237.829 224.254,238.172 224.498 M244.702 224.728 C 244.595 225.008,244.562 227.512,244.629 230.294 L 244.752 235.352 244.837 230.005 L 244.922 224.659 246.191 224.501 L 247.461 224.344 246.179 224.281 C 245.436 224.245,244.815 224.433,244.702 224.728 M250.955 225.111 C 250.849 225.387,250.815 228.770,250.879 232.630 L 250.996 239.648 251.084 232.349 L 251.172 225.049 252.441 224.892 L 253.711 224.734 252.429 224.672 C 251.695 224.636,251.065 224.824,250.955 225.111 M257.595 225.111 C 257.489 225.387,257.455 228.683,257.520 232.436 L 257.637 239.258 257.725 232.154 L 257.813 225.049 259.082 224.892 L 260.352 224.734 259.070 224.672 C 258.335 224.636,257.706 224.824,257.595 225.111 M296.166 224.896 C 301.741 225.017,301.908 225.045,302.064 225.889 C 302.200 226.626,302.218 226.610,302.186 225.781 L 302.148 224.805 296.289 224.788 L 290.430 224.771 296.166 224.896 M225.293 226.838 C 225.776 226.931,226.567 226.931,227.051 226.838 C 227.534 226.745,227.139 226.669,226.172 226.669 C 225.205 226.669,224.810 226.745,225.293 226.838 M205.971 228.711 C 205.974 229.785,206.050 230.178,206.140 229.584 C 206.229 228.991,206.227 228.112,206.134 227.631 C 206.042 227.151,205.968 227.637,205.971 228.711 M294.686 233.594 C 294.686 236.709,294.747 237.983,294.821 236.426 C 294.895 234.868,294.895 232.319,294.821 230.762 C 294.747 229.204,294.686 230.479,294.686 233.594 M115.753 231.836 C 115.755 233.340,115.826 233.907,115.910 233.097 C 115.995 232.286,115.993 231.056,115.907 230.362 C 115.821 229.669,115.751 230.332,115.753 231.836 M63.793 232.617 C 63.795 233.906,63.868 234.387,63.955 233.684 C 64.042 232.982,64.040 231.928,63.951 231.341 C 63.862 230.754,63.791 231.328,63.793 232.617 M188.581 231.142 C 189.283 231.229,190.338 231.228,190.925 231.138 C 191.512 231.049,190.938 230.978,189.648 230.980 C 188.359 230.983,187.879 231.056,188.581 231.142 M195.612 231.142 C 196.315 231.229,197.369 231.228,197.956 231.138 C 198.543 231.049,197.969 230.978,196.680 230.980 C 195.391 230.983,194.910 231.056,195.612 231.142 M203.034 231.142 C 203.736 231.229,204.791 231.228,205.378 231.138 C 205.965 231.049,205.391 230.978,204.102 230.980 C 202.813 230.983,202.332 231.056,203.034 231.142 M209.675 231.142 C 210.377 231.229,211.432 231.228,212.019 231.138 C 212.606 231.049,212.031 230.978,210.742 230.980 C 209.453 230.983,208.973 231.056,209.675 231.142 M331.341 232.031 C 331.341 232.783,331.421 233.091,331.519 232.715 C 331.618 232.339,331.618 231.724,331.519 231.348 C 331.421 230.972,331.341 231.279,331.341 232.031 M297.788 233.984 C 297.788 235.596,297.857 236.255,297.941 235.449 C 298.025 234.644,298.025 233.325,297.941 232.520 C 297.857 231.714,297.788 232.373,297.788 233.984 M188.672 233.421 C 190.123 233.737,192.115 233.792,191.942 233.512 C 191.837 233.342,190.926 233.224,189.918 233.248 C 188.911 233.273,188.350 233.351,188.672 233.421 M195.416 233.483 C 196.009 233.573,196.888 233.571,197.369 233.478 C 197.849 233.385,197.363 233.312,196.289 233.315 C 195.215 233.318,194.822 233.394,195.416 233.483 M203.228 233.483 C 203.822 233.573,204.701 233.571,205.181 233.478 C 205.662 233.385,205.176 233.312,204.102 233.315 C 203.027 233.318,202.634 233.394,203.228 233.483 M209.473 233.483 C 210.063 233.572,211.030 233.572,211.621 233.483 C 212.212 233.393,211.729 233.320,210.547 233.320 C 209.365 233.320,208.882 233.393,209.473 233.483 M205.971 235.742 C 205.974 236.816,206.050 237.209,206.140 236.616 C 206.229 236.022,206.227 235.143,206.134 234.663 C 206.042 234.182,205.968 234.668,205.971 235.742 " stroke="none" fill="#535454" fill-rule="evenodd"></path></g></svg>